<?xml version="1.0" standalone="no"?>
<svg viewBox="0 0 200 200" xmlns="http://www.w3.org/2000/svg">
  <path fill="#F2F4F8" d="M44.9,-77.5C58.8,-69.7,71,-58.9,77.1,-45.5C83.2,-32.1,83.1,-16,81.3,-1C79.5,14,76.1,28,68.7,39.2C61.4,50.4,50.1,58.7,37.9,66.5C25.8,74.4,12.9,81.6,-1.8,84.7C-16.4,87.7,-32.9,86.6,-45.3,78.9C-57.7,71.3,-66.1,57.2,-73.2,42.9C-80.4,28.7,-86.2,14.3,-87.8,-0.9C-89.3,-16.1,-86.6,-32.3,-78.2,-44.3C-69.8,-56.3,-55.7,-64.3,-41.8,-72.1C-27.8,-79.8,-13.9,-87.4,0.8,-88.8C15.5,-90.1,31,-85.3,44.9,-77.5Z" transform="translate(100 100)" />
</svg>
